# AST/ASF file generated using VICON BodyLanguage
# -----------------------------------------------
:version 1.10
:name VICON
:units
  mass 1.0
  length 0.45
  angle deg
:documentation
   .ast/.asf automatically generated from VICON data using
   VICON BodyBuilder and BodyLanguage model FoxedUp or BRILLIANT.MOD
:root
   order TX TY TZ RX RY RZ
   axis XYZ
   position 0 0 0  
   orientation 0 0 0 
:bonedata
  begin
     id 1 
     name lhipjoint
     direction 0.822369 -0.411937 0.392449 
     length 3.8167 
     axis 0 0 0  XYZ
  end
  begin
     id 2 
     name lfemur
     direction 0.34202 -0.939693 0  
     length 6.16791  
     axis 0 0 20  XYZ
    dof rx ry rz
    limits (-160.0 20.0)
           (-70.0 70.0)
           (-60.0 70.0)
  end
  begin
     id 3 
     name ltibia
     direction 0.34202 -0.939693 0   
     length 7.07101   
     axis 0 0 20   XYZ
    dof rx
    limits (-10.0 170.0)
  end
  begin
     id 4 
     name lfoot
     direction 0.028254 -0.0776273 0.996582   
     length 1.66799   
     axis -90 7.62852e-016 20   XYZ
    dof rx rz
    limits (-45.0 90.0)
           (-70.0 20.0)
  end
  begin
     id 5 
     name ltoes
     direction 1.53483e-011 -4.21688e-011 1   
     length 0.851674   
     axis -90 7.62852e-016 20   XYZ
    dof rx
    limits (-90.0 20.0)
  end
  begin
     id 6 
     name rhipjoint
     direction -0.822466 -0.411836 0.392353   
     length 3.81764  
     axis 0 0 0  XYZ 
  end
  begin
     id 7 
     name rfemur
     direction -0.34202 -0.939693 0   
     length 6.28636   
     axis 0 0 -20   XYZ
    dof rx ry rz
    limits (-160.0 20.0)
           (-70.0 70.0)
           (-70.0 60.0)
  end
  begin
     id 8 
     name rtibia
     direction -0.34202 -0.939693 0   
     length 6.85621   
     axis 0 0 -20   XYZ
    dof rx
    limits (-10.0 170.0)
 end
 begin
     id 9 
     name rfoot
     direction -0.0553036 -0.151945 0.98684   
     length 1.57293  
     axis -90 -7.62852e-016 -20   XYZ
    dof rx rz
    limits (-45.0 90.0)
           (-20.0 70.0)
  end
  begin
     id 10 
     name rtoes
     direction -1.53592e-011 -4.21964e-011 1   
     length 0.802812   
     axis -90 -7.62852e-016 -20   XYZ
    dof rx
    limits (-90.0 20.0)
  end
  begin
     id 11 
     name lowerback
     direction 0.00654913 0.996475 -0.0836396   
     length 1.97212   
     axis 0 0 0   XYZ
    dof rx ry rz
    limits (-20.0 45.0)
           (-30.0 30.0)
           (-30.0 30.0)
  end
  begin
     id 12 
     name upperback
     direction 0.0111875 0.994527 0.103877   
     length 1.89704   
     axis 0 0 0   XYZ
    dof rx ry rz
    limits (-20.0 45.0)
           (-30.0 30.0)
           (-30.0 30.0)
  end
  begin
     id 13 
     name thorax
     direction 0.00473652 0.989004 0.147814   
     length 1.94516   
     axis 0 0 0   XYZ
    dof rx ry rz
    limits (-20.0 45.0)
           (-30.0 30.0)
           (-30.0 30.0)
  end
  begin
     id 14 
     name lowerneck
     direction -0.00925808 0.999011 0.0434791   
     length 1.81771   
     axis 0 0 0   XYZ
    dof rx ry rz
    limits (-20.0 45.0)
           (-30.0 30.0)
           (-30.0 30.0)
  end
  begin
     id 15 
     name upperneck
     direction 0.00451595 0.964412 -0.264365   
     length 1.80434   
     axis 0 0 0   XYZ
    dof rx ry rz
    limits (-20.0 45.0)
           (-30.0 30.0)
           (-30.0 30.0)
  end
  begin
     id 16
     name head
     direction -0.00110849 0.995756 -0.0920241  
     length 1.84006  
     axis 0 0 0   XYZ
    dof rx ry rz
    limits (-20.0 45.0)
           (-30.0 30.0)
           (-30.0 30.0)
  end
  begin
     id 17 
     name lclavicle
     direction 0.921253 0.385213 0.0538957  
     length 3.67415  
     axis 0 0 0   XYZ
    dof ry rz
    limits (-20.0 10.0)
           (0.0 20.0)
  end
  begin
     id 18 
     name lhumerus
     direction 1 -4.48961e-011 6.73441e-028   
     length 4.32712   
     axis 180 -30 -90   XYZ
    dof rx ry rz
    limits (-60.0 90.0)
           (-90.0 90.0)
           (-90.0 90.0)
  end
  begin
     id 19
     name lradius
     direction 1 -4.48985e-011 -9.53507e-028   
     length 3.28587   
     axis 180 -30 -90   XYZ
    dof rx
    limits (-10.0 170.0)
  end
  begin
     id 20
     name lwrist
     direction 1 -4.48951e-011 -4.67472e-027   
     length 1.64293   
     axis 1.65735e-015 90 90   XYZ
    dof ry
    limits (-180.0 0.0)
 end
  begin
     id 21 
     name lhand
     direction 1 -4.48946e-011 -9.34945e-027   
     length 0.433158   
     axis 5.96574e-015 90 90   XYZ
    dof rx rz
    limits (-90.0 90.0)
           (-45.0 45.0)
  end
  begin
     id 22 
     name lfingers
     direction 1 -4.48882e-011 -1.86989e-026   
     length 0.349224   
     axis 1.19315e-014 90 90   XYZ
    dof rx
    limits (0.0 90.0)
  end
  begin
     id 23
     name lthumb
     direction 0.707107 -6.3493e-011 0.707107   
     length 0.501417   
     axis -90 45 2.85299e-015   XYZ
    dof rx rz
    limits (-45.0 45.0)
           (-45.0 45.0)
  end
  begin
     id 24 
     name rclavicle
     direction -0.884378 0.46502 -0.0403866   
     length 3.50218  
     axis 0 0 0   XYZ 
    dof ry rz
    limits (-10.0 20.0)
           (-20.0 0.0)
  end
  begin
     id 25 
     name rhumerus
     direction -1 -4.48964e-011 1.58188e-027  
     length 4.29104   
     axis 180 30 90   XYZ
    dof rx ry rz
    limits (-90.0 60.0)
           (-90.0 90.0)
           (-90.0 90.0)
  end
  begin
     id 26 
     name rradius
     direction -1 -4.48978e-011 -1.9722e-027   
     length 3.2272   
     axis 180 30 90   XYZ
    dof rx
    limits (-10.0 170.0)
  end
  begin
     id 27 
     name rwrist
     direction -1 -4.48969e-011 -4.67472e-027   
     length 1.6136   
     axis 1.65735e-015 -90 -90   XYZ
    dof ry
    limits (-180.0 0.0)
  end
  begin
     id 28
     name rhand
     direction -1 -4.48846e-011 -9.34945e-027   
     length 0.543623   
     axis 5.96574e-015 -90 -90   XYZ
    dof rx rz
    limits (-90.0 90.0)
           (-45.0 45.0)
  end
  begin
     id 29
     name rfingers
     direction -1 -4.49074e-011 -1.86989e-026   
     length 0.438283   
     axis 1.19315e-014 -90 -90   XYZ
    dof rx
    limits (0.0 90.0)
  end
  begin
     id 30
     name rthumb
     direction -0.707107 -6.34834e-011 0.707107   
     length 0.629289   
     axis -90 -45 -2.85299e-015   XYZ
    dof rx rz
    limits (-45.0 45.0)
           (-45.0 45.0)
  end
:hierarchy
  begin
    root lhipjoint rhipjoint lowerback
    lhipjoint lfemur
    lfemur ltibia
    ltibia lfoot
    lfoot ltoes
    rhipjoint rfemur
    rfemur rtibia
    rtibia rfoot
    rfoot rtoes
    lowerback upperback
    upperback thorax
    thorax lowerneck lclavicle rclavicle
    lowerneck upperneck
    upperneck head
    lclavicle lhumerus
    lhumerus lradius
    lradius lwrist
    lwrist lhand lthumb
    lhand lfingers
    rclavicle rhumerus
    rhumerus rradius
    rradius rwrist
    rwrist rhand rthumb
    rhand rfingers
  end

#!OML:ASF H:\GeneralSubjects\Female5\Project 1\Capture day 1\Session 1\Female5.ASF
:FULLY-SPECIFIED
:DEGREES
100
root -11.6904 15.693 -4.95957 -173.881 77.7364 -183.202
lowerback 7.78141 -1.96765 -6.37633
upperback -10.1456 -3.04995 2.35653
thorax -15.2642 -0.384651 6.83365
lowerneck -16.4202 -1.47017 1.66982
upperneck 28.845 0.917778 -9.07111
head 12.3048 -0.322526 -3.54581
rclavicle 9.34288e-015 -2.38542e-014
rhumerus -2.29078 -19.7369 -41.8597
rradius 133.027
rwrist 1.46654
rhand -60.1312 -17.0204
rfingers 7.12502
rthumb -32.2767 -44.1705
lclavicle 9.34288e-015 -2.38542e-014
lhumerus -36.2619 -2.30564 86.2215
lradius 43.6501
lwrist -8.07152
lhand -26.1425 38.1767
lfingers 7.12502
lthumb 0.40815 68.156
rfemur -33.7981 21.0075 11.9269
rtibia 2.4084
rfoot -33.5144 -34.7895
rtoes -11.7757
lfemur 12.23 -20.7757 -41.4836
ltibia -0.26113
lfoot -21.0757 16.6859
ltoes -65.2925
101
root -11.3605 15.6579 -4.98746 -173.387 76.5483 -183.027
lowerback 7.62818 -2.21314 -6.65096
upperback -10.3154 -3.3924 2.46527
thorax -15.2998 -0.491435 7.17469
lowerneck -16.3239 -1.63278 1.43575
upperneck 28.3602 0.572279 -8.72483
head 12.0663 -0.463451 -3.40228
rclavicle -5.51627e-015 -1.70955e-014
rhumerus -1.81876 -21.3464 -41.0434
rradius 133.322
rwrist 0.362383
rhand -58.3825 -17.6107
rfingers 7.12502
rthumb -30.6107 -45.0856
lclavicle -5.51627e-015 -1.70955e-014
lhumerus -36.5215 -2.51944 86.6843
lradius 44.2809
lwrist -7.61736
lhand -26.463 38.28
lfingers 7.12502
lthumb 0.0985566 68.2597
rfemur -33.7084 20.1214 12.3039
rtibia -0.0521745
rfoot -33.3727 -31.9202
rtoes -9.7059
lfemur 13.5283 -21.2671 -41.7133
ltibia -0.461653
lfoot -21.502 15.7852
ltoes -64.62
102
root -11.0183 15.624 -5.01809 -174.002 75.3693 -184.014
lowerback 7.57021 -2.47995 -7.10177
upperback -10.6066 -3.81231 2.44151
thorax -15.5305 -0.604417 7.49032
lowerneck -16.3253 -1.83442 1.3248
upperneck 28.1715 0.231865 -8.56435
head 11.9691 -0.612037 -3.36457
rclavicle 2.05742e-014 1.59028e-014
rhumerus -1.65643 -22.8072 -40.2725
rradius 133.577
rwrist -0.785587
rhand -57.9731 -17.6668
rfingers 7.12502
rthumb -30.2202 -45.2139
lclavicle 2.05742e-014 1.59028e-014
lhumerus -37.1791 -2.31623 86.9244
lradius 44.9276
lwrist -7.5164
lhand -27.0594 38.6368
lfingers 7.12502
lthumb -0.477455 68.616
rfemur -34.2471 19.0977 12.2523
rtibia -1.00871
rfoot -33.2752 -28.892
rtoes -5.54884
lfemur 14.4717 -21.2599 -41.9982
ltibia -0.23739
lfoot -20.912 15.0937
ltoes -64.4492
103
root -10.6654 15.5896 -5.0479 -174.443 74.1673 -184.688
lowerback 7.5956 -2.72691 -7.5074
upperback -10.8589 -4.20969 2.40307
thorax -15.7706 -0.712266 7.76344
lowerneck -16.4344 -2.10879 1.23194
upperneck 28.154 -0.154243 -8.54253
head 11.9599 -0.797914 -3.39825
rclavicle -1.66482e-014 1.19271e-015
rhumerus -1.64834 -24.4007 -39.5734
rradius 133.715
rwrist -1.723
rhand -57.877 -17.7827
rfingers 7.12502
rthumb -30.1285 -45.3466
lclavicle -1.66482e-014 1.19271e-015
lhumerus -38.0722 -1.95903 87.0203
lradius 45.6979
lwrist -7.64322
lhand -26.0547 38.7258
lfingers 7.12502
lthumb 0.492896 68.705
rfemur -34.8124 18.2282 12.4567
rtibia -0.434658
rfoot -31.0289 -27.974
rtoes -10.799
lfemur 15.3726 -21.1311 -42.1266
ltibia 0.243605
lfoot -19.8567 14.5524
ltoes -64.5413
104
root -10.3071 15.5577 -5.07853 -173.805 73.0541 -184.127
lowerback 7.40904 -2.95969 -7.74831
upperback -10.865 -4.52417 2.56456
thorax -15.5694 -0.829997 8.12456
lowerneck -16.7831 -2.32803 0.896962
upperneck 27.9694 -0.458213 -8.36176
head 11.9447 -0.961475 -3.31791
rclavicle -3.87133e-014 -3.97569e-015
rhumerus -0.846153 -26.0672 -39.4499
rradius 133.409
rwrist -2.09898
rhand -57.5636 -17.5949
rfingers 7.12502
rthumb -29.8295 -45.2129
lclavicle -3.87133e-014 -3.97569e-015
lhumerus -38.6288 -1.36617 87.0867
lradius 46.4284
lwrist -7.88319
lhand -25.9307 37.677
lfingers 7.12502
lthumb 0.612698 67.6559
rfemur -34.9503 17.6795 13.227
rtibia 0.483539
rfoot -29.7922 -26.655
rtoes -11.5277
lfemur 16.4449 -21.0519 -41.8776
ltibia 0.754748
lfoot -19.0048 14.1206
ltoes -65.8806
105
root -9.9386 15.5328 -5.10943 -172.837 72.1212 -183.225
lowerback 7.34874 -3.12505 -7.85184
upperback -11.034 -4.73044 2.71849
thorax -15.681 -0.880089 8.40096
lowerneck -16.7942 -2.54263 0.507956
upperneck 27.6801 -0.776008 -8.07638
head 11.8214 -1.11446 -3.17883
rclavicle -6.85807e-014 -1.94809e-014
rhumerus 0.190995 -27.3629 -39.8414
rradius 132.663
rwrist -1.95554
rhand -57.3514 -17.5959
rfingers 7.12502
rthumb -29.627 -45.2501
lclavicle -6.85807e-014 -1.94809e-014
lhumerus -39.4813 -0.657481 87.0621
lradius 47.001
lwrist -8.31877
lhand -26.5429 36.9724
lfingers 7.12502
lthumb 0.0213591 66.9522
rfemur -35.1849 17.4214 14.1913
rtibia 2.58412
rfoot -28.6342 -24.8866
rtoes -10.6615
lfemur 17.5224 -20.9837 -41.4377
ltibia 1.27681
lfoot -17.8918 14.0814
ltoes -66.3093
106
root -9.54812 15.5168 -5.13725 -172.513 71.2877 -182.933
lowerback 7.28642 -3.25135 -8.22785
upperback -11.2667 -4.92813 2.82594
thorax -15.8617 -0.885914 8.781
lowerneck -16.6997 -2.7926 0.136604
upperneck 27.3891 -1.09414 -7.95779
head 11.6784 -1.28275 -3.10339
rclavicle 1.93815e-015 -1.19271e-014
rhumerus 1.32403 -28.2811 -40.739
rradius 131.615
rwrist -1.58662
rhand -57.2646 -17.7599
rfingers 7.12502
rthumb -29.5441 -45.4287
lclavicle 1.93815e-015 -1.19271e-014
lhumerus -40.6309 -0.0232258 86.902
lradius 47.5743
lwrist -8.66
lhand -27.2617 36.9668
lfingers 7.12502
lthumb -0.672884 66.9455
rfemur -34.5572 14.1798 17.3592
rtibia 5.24795
rfoot -21.2894 -22.1885
rtoes -24.8947
lfemur 18.5812 -20.7575 -41.052
ltibia 1.89776
lfoot -16.622 13.834
ltoes -66.7471
107
root -9.13669 15.5077 -5.16262 -172.733 70.4557 -183.045
lowerback 7.20162 -3.37801 -8.79954
upperback -11.4167 -5.16089 2.91087
thorax -15.9048 -0.901346 9.2438
lowerneck -16.9357 -2.99737 -0.333314
upperneck 27.3932 -1.28211 -7.83387
head 11.7286 -1.40732 -3.01062
rclavicle 8.27441e-014 -2.10712e-014
rhumerus 2.50109 -28.5491 -42.1983
rradius 130.312
rwrist -1.22664
rhand -58.0336 -16.3313
rfingers 7.12502
rthumb -30.278 -43.8679
lclavicle 8.27441e-014 -2.10712e-014
lhumerus -41.8317 0.590672 86.5704
lradius 48.1642
lwrist -8.79709
lhand -27.6433 36.9947
lfingers 7.12502
lthumb -1.04145 66.9719
rfemur -33.9037 15.1615 17.4141
rtibia 6.42991
rfoot -19.8663 -19.7904
rtoes -14.3704
lfemur 19.7294 -20.3427 -40.6736
ltibia 2.55307
lfoot -15.0716 13.329
ltoes -67.2273
